<svg xmlns="http://www.w3.org/2000/svg" width="24" height="24" fill="currentColor" viewBox="0 0 24 24">
  <path d="M12 3c-1.625 0-3.14.414-4.547 1.242a8.56 8.56 0 00-3.21 3.211A8.807 8.807 0 003 12c0 1.625.414 3.14 1.242 4.547a8.735 8.735 0 003.211 3.234A8.935 8.935 0 0012 21c1.625 0 3.14-.406 4.547-1.219a8.916 8.916 0 003.234-3.234A8.936 8.936 0 0021 12c0-1.625-.406-3.14-1.219-4.547a8.735 8.735 0 00-3.234-3.21A8.807 8.807 0 0012 3zm0 1.5c1.36 0 2.625.344 3.797 1.031a7.304 7.304 0 012.672 2.672A7.375 7.375 0 0119.5 12c0 1.36-.344 2.625-1.031 3.797a7.305 7.305 0 01-2.672 2.672A7.375 7.375 0 0112 19.5a7.375 7.375 0 01-3.797-1.031 7.304 7.304 0 01-2.672-2.672A7.375 7.375 0 014.5 12c0-1.36.344-2.625 1.031-3.797a7.304 7.304 0 012.672-2.672A7.374 7.374 0 0112 4.5zM11.25 6v6.75h5.25v-1.5h-3.75V6h-1.5z"/>
</svg>
