<svg xmlns="http://www.w3.org/2000/svg" width="24" height="24" fill="currentColor" viewBox="0 0 24 24">
  <path d="M12 2.25a9.546 9.546 0 00-4.922 1.336 9.596 9.596 0 00-3.492 3.492A9.546 9.546 0 002.25 12c0 1.766.445 3.406 1.336 4.922a9.596 9.596 0 003.492 3.492A9.546 9.546 0 0012 21.75a9.547 9.547 0 004.922-1.336 9.597 9.597 0 003.492-3.492A9.547 9.547 0 0021.75 12a9.546 9.546 0 00-1.336-4.922 9.596 9.596 0 00-3.492-3.492A9.546 9.546 0 0012 2.25zm0 1.5c1.5 0 2.89.375 4.172 1.125a8.356 8.356 0 012.953 2.953A8.114 8.114 0 0120.25 12c0 1.5-.375 2.89-1.125 4.172a8.356 8.356 0 01-2.953 2.953A8.114 8.114 0 0112 20.25c-1.5 0-2.89-.375-4.172-1.125a8.356 8.356 0 01-2.953-2.953A8.114 8.114 0 013.75 12c0-1.5.375-2.89 1.125-4.172a8.355 8.355 0 012.953-2.953A8.114 8.114 0 0112 3.75zm-.75 3.75V9h1.5V7.5h-1.5zm0 3v6h1.5v-6h-1.5z"/>
</svg>
