<svg xmlns="http://www.w3.org/2000/svg" width="24" height="24" fill="currentColor" viewBox="0 0 24 24">
  <path d="M12 3c-1.25 0-2.445.25-3.586.75a8.822 8.822 0 00-2.86 1.992A8.887 8.887 0 003.657 8.72l1.383.562a7.377 7.377 0 011.57-2.484A7.554 7.554 0 019 5.109a7.573 7.573 0 013-.609c1.188 0 2.313.273 3.375.82a7.4 7.4 0 012.578 2.18H15V9h5.25V3.75h-1.5v2.32a9.319 9.319 0 00-2.977-2.25A9.018 9.018 0 0012 3zm6.96 11.719a7.376 7.376 0 01-1.57 2.484A7.553 7.553 0 0115 18.891a7.572 7.572 0 01-3 .609 7.321 7.321 0 01-3.398-.82 7.692 7.692 0 01-2.579-2.18H9V15H3.75v5.25h1.5v-2.32a9.028 9.028 0 002.977 2.226A8.705 8.705 0 0012 21c1.25 0 2.445-.25 3.586-.75a8.822 8.822 0 002.86-1.992 8.89 8.89 0 001.898-2.977l-1.383-.562z"/>
</svg>
